<svg id="svg-source" height="0" version="1.1" 
  xmlns="http://www.w3.org/2000/svg" style="position:absolute; margin-left: -100%" 
  xmlns:xlink="http://www.w3.org/1999/xlink">
  <g id="images" data-iconmelon="Line icon set:244bd82af76ac7ece3792b485b3ec5f6">
    <g id="images">
      <g>
        <path  d="M11.286,0H2.714C1.218,0,0,1.218,0,2.715v8.57C0,12.782,1.218,14,2.714,14h8.572
			C12.782,14,14,12.782,14,11.285v-8.57C14,1.218,12.782,0,11.286,0z M12,11.285C12,11.68,11.68,12,11.286,12H2.714
			C2.32,12,2,11.68,2,11.285v-8.57C2,2.32,2.32,2,2.714,2h8.572C11.68,2,12,2.32,12,2.715V11.285z M29.286,0h-8.572
			C19.218,0,18,1.218,18,2.715v8.57C18,12.782,19.218,14,20.714,14h8.572C30.782,14,32,12.782,32,11.285v-8.57
			C32,1.218,30.782,0,29.286,0z M30,11.285C30,11.68,29.68,12,29.286,12h-8.572C20.32,12,20,11.68,20,11.285v-8.57
			C20,2.32,20.32,2,20.714,2h8.572C29.68,2,30,2.32,30,2.715V11.285z M11.286,18H2.714C1.218,18,0,19.218,0,20.714v8.572
			C0,30.782,1.218,32,2.714,32h8.572C12.782,32,14,30.782,14,29.286v-8.572C14,19.218,12.782,18,11.286,18z M12,29.286
			C12,29.68,11.68,30,11.286,30H2.714C2.32,30,2,29.68,2,29.286v-8.572C2,20.32,2.32,20,2.714,20h8.572C11.68,20,12,20.32,12,20.714
			V29.286z M29.286,18h-8.572C19.218,18,18,19.218,18,20.714v8.572C18,30.782,19.218,32,20.714,32h8.572
			C30.782,32,32,30.782,32,29.286v-8.572C32,19.218,30.782,18,29.286,18z M30,29.286C30,29.68,29.68,30,29.286,30h-8.572
			C20.32,30,20,29.68,20,29.286v-8.572C20,20.32,20.32,20,20.714,20h8.572C29.68,20,30,20.32,30,20.714V29.286z"></path>
      </g>
    </g>
  </g>
  <g id="home" data-iconmelon="Line icon set:3192e3577bd4e534d1573addb564b8b8">
    <g id="Home">
      <g>
        <path  d="M31.121,13.862l-13-13.013c-1.134-1.134-3.108-1.134-4.242,0l-13,13.013c-1.17,1.171-1.17,3.075,0,4.246
			c0.567,0.567,1.32,0.88,2.121,0.88c0.348,0,0.682-0.069,1-0.182v11.192c0,1.104,0.897,2.002,2,2.002h4c1.103,0,2-0.898,2-2.002
			v-7.007h8v7.007c0,1.104,0.897,2.002,2,2.002h4c1.103,0,2-0.898,2-2.002V18.807c0.318,0.112,0.652,0.182,1,0.182
			c0.801,0,1.554-0.312,2.121-0.88C32.291,16.938,32.291,15.033,31.121,13.862z M15.293,2.265c0.189-0.188,0.44-0.293,0.707-0.293
			s0.518,0.104,0.707,0.293c0.39,0.391,0.39,1.025,0,1.416L16,4.388l-0.707-0.707C14.903,3.29,14.903,2.655,15.293,2.265z
			 M3.707,16.693c-0.378,0.377-1.036,0.377-1.414,0c-0.39-0.391-0.39-1.025,0-1.416l11.009-11.02
			c0.143,0.301,0.328,0.589,0.577,0.838l0.707,0.708L3.707,16.693z M26,29.999h-4v-7.007c0-1.104-0.897-2.002-2-2.002h-8
			c-1.103,0-2,0.898-2,2.002v7.007H6V17.229l10-10.01l10,10.01V29.999z M29.707,16.693c-0.378,0.377-1.036,0.377-1.414,0
			L17.414,5.804l0.707-0.708c0.249-0.249,0.434-0.537,0.577-0.838l11.009,11.02C30.097,15.668,30.097,16.303,29.707,16.693z
			 M12,14.984c0,2.208,1.794,4.004,4,4.004s4-1.796,4-4.004s-1.794-4.004-4-4.004S12,12.776,12,14.984z M18,14.984
			c0,1.104-0.897,2.002-2,2.002s-2-0.898-2-2.002s0.897-2.002,2-2.002S18,13.881,18,14.984z"></path>
      </g>
    </g>
  </g>
  <g id="phone-2" data-iconmelon="Line icon set:4026c32f593d8509666e11c2e8bf539a">
    <g id="Phone_x5F_2">
      <g>
        <path  d="M30.989,2.602L30.09,1.704c-1.109-1.107-2.711-1.692-4.631-1.692c-4.745,0-11.097,3.398-16.58,8.871
			C0.916,16.831-2.244,26.13,1.686,30.052l0.899,0.899c0.671,0.668,1.563,1.037,2.512,1.037s1.841-0.369,2.513-1.038l3.597-3.591
			c1.384-1.381,1.386-3.63,0-5.014l-0.899-0.897c-0.958-0.958-0.518-3.444,3.597-7.551c3.504-3.496,5.532-4.019,6.43-4.019
			c0.475,0,0.845,0.141,1.134,0.43l0.899,0.897c1.341,1.339,3.684,1.341,5.025,0l3.595-3.59c0.673-0.669,1.042-1.56,1.042-2.507
			S31.661,3.271,30.989,2.602z M29.561,6.19l-3.597,3.59c-0.58,0.578-1.589,0.58-2.168,0l-0.899-0.897
			c-0.668-0.667-1.553-1.02-2.562-1.02c-2.149,0-4.792,1.551-7.858,4.609c-6.325,6.312-4.622,9.376-3.597,10.4l0.899,0.897
			c0.598,0.597,0.598,1.567,0,2.164l-3.596,3.589c-0.582,0.579-1.591,0.578-2.17,0.001l-0.898-0.897
			c-3.025-3.02,0.269-11.408,7.193-18.318c5.041-5.031,10.988-8.281,15.152-8.281c1.393,0,2.47,0.37,3.203,1.102l0.898,0.897
			c0.29,0.29,0.45,0.675,0.45,1.083C30.011,5.517,29.851,5.9,29.561,6.19z"></path>
      </g>
    </g>
  </g>
  <g id="user" data-iconmelon="Line icon set:30083a7bfb6507fa958b38dd34f331df">
    <g id="User">
      <g>
        <path  d="M16,22.001c4.963,0,9-4.936,9-11C25,4.936,20.962,0,16,0c-2.447,0-4.734,1.174-6.438,3.305
			C7.909,5.37,7,8.104,7,11.001C7,17.065,11.037,22.001,16,22.001z M16,2.001c3.859,0,7,4.037,7,9c0,4.962-3.141,9-7,9
			s-7-4.038-7.001-9C8.999,6.038,12.14,2.001,16,2.001z M23,20.001c-0.553,0-1,0.447-1,1c0,0.552,0.447,1,1,1
			c3.859,0,7,3.14,7,6.999C30,29.551,29.551,30,29,30H3C2.449,30,2,29.551,2,29c0-3.859,3.141-6.999,7-6.999c0.553,0,1-0.448,1-1
			c0-0.553-0.447-1-1-1c-4.963,0-9,4.037-9,8.999C0,30.655,1.346,32,3,32h22.5H29c1.654,0,3-1.346,3-3.001
			C32,24.038,27.963,20.001,23,20.001z"></path>
      </g>
    </g>
  </g>
  <g id="mail-1" data-iconmelon="Line icon set:c50fe2a65a0ce5af4d66468b1a079e1e">
    <g id="Mail_x5F_1">
      <g>
        <path  d="M31.121,0.879C30.554,0.312,29.801,0,29,0H3C2.199,0,1.446,0.312,0.879,0.879C0.312,1.444,0,2.198,0,3v26
			c0,0.204,0.021,0.404,0.061,0.6c0.008,0.037,0.023,0.069,0.032,0.105c0.037,0.156,0.08,0.312,0.143,0.46
			c0.007,0.015,0.016,0.026,0.022,0.041c0.147,0.336,0.354,0.647,0.621,0.916c0.129,0.129,0.271,0.24,0.417,0.342
			c0.01,0.008,0.019,0.017,0.028,0.023c0.139,0.094,0.287,0.17,0.439,0.238c0.024,0.012,0.047,0.028,0.072,0.039
			c0.144,0.061,0.294,0.102,0.446,0.139c0.04,0.011,0.077,0.028,0.118,0.036C2.596,31.979,2.796,32,3,32h26
			c0.204,0,0.404-0.021,0.6-0.061c0.041-0.008,0.078-0.025,0.119-0.036c0.151-0.037,0.302-0.078,0.445-0.139
			c0.026-0.011,0.05-0.028,0.076-0.041c0.15-0.068,0.298-0.143,0.436-0.236c0.01-0.007,0.019-0.016,0.028-0.023
			c0.146-0.102,0.288-0.213,0.417-0.342c0.266-0.266,0.47-0.575,0.618-0.909c0.007-0.017,0.019-0.031,0.025-0.048
			c0.062-0.147,0.104-0.303,0.143-0.459c0.009-0.036,0.024-0.069,0.032-0.106C31.979,29.404,32,29.204,32,29V3
			C32,2.198,31.688,1.444,31.121,0.879z M2,6.242L11.758,16L2,25.76V6.242z M29.922,29.387c-0.05,0.118-0.121,0.227-0.215,0.319
			c-0.094,0.095-0.203,0.166-0.321,0.216S29.137,30,29,30H3c-0.137,0-0.268-0.028-0.386-0.078s-0.228-0.121-0.321-0.216
			c-0.094-0.093-0.165-0.201-0.215-0.319S2,29.137,2,29c0-0.266,0.103-0.516,0.289-0.701l10.883-10.885l0.707,0.707
			C14.445,18.688,15.199,19,16,19s1.555-0.312,2.121-0.879l0.707-0.707l10.883,10.885C29.897,28.484,30,28.734,30,29
			C30,29.137,29.972,29.269,29.922,29.387z M30,25.758L20.242,16L30,6.24V25.758z M29.711,3.701L16.707,16.707
			c-0.379,0.378-1.035,0.378-1.414,0L2.289,3.701C2.103,3.516,2,3.266,2,3c0-0.268,0.104-0.519,0.293-0.706C2.482,2.104,2.733,2,3,2
			h26c0.267,0,0.518,0.104,0.707,0.294C29.896,2.481,30,2.732,30,3C30,3.266,29.897,3.516,29.711,3.701z"></path>
      </g>
    </g>
  </g>
  <g id="skype" data-iconmelon="Flat Social Icons:13ef86601b5a3b71b5cc4961921a89c3">
    <g>
      <path d="M19.363,15.777c-0.359-0.234-0.797-0.434-1.306-0.597c-0.501-0.16-1.069-0.309-1.688-0.441
		c-0.487-0.113-0.845-0.2-1.056-0.259c-0.207-0.057-0.413-0.138-0.614-0.238c-0.193-0.098-0.347-0.212-0.455-0.346
		c-0.103-0.125-0.152-0.271-0.152-0.444c0-0.283,0.154-0.522,0.474-0.731c0.329-0.217,0.775-0.325,1.321-0.325
		c0.59,0,1.019,0.097,1.275,0.294c0.264,0.2,0.494,0.484,0.685,0.847c0.164,0.283,0.313,0.479,0.455,0.606
		c0.154,0.135,0.374,0.205,0.657,0.205c0.311,0,0.575-0.11,0.784-0.328c0.208-0.216,0.312-0.463,0.312-0.737
		c0-0.282-0.08-0.575-0.238-0.87c-0.156-0.291-0.406-0.571-0.742-0.833c-0.333-0.261-0.758-0.472-1.261-0.628
		c-0.5-0.155-1.099-0.235-1.78-0.235c-0.853,0-1.606,0.119-2.239,0.354c-0.642,0.236-1.14,0.583-1.481,1.028
		c-0.344,0.447-0.519,0.968-0.519,1.543c0,0.606,0.167,1.119,0.494,1.531c0.323,0.402,0.764,0.726,1.312,0.959
		c0.535,0.228,1.208,0.428,2,0.597c0.582,0.123,1.053,0.241,1.4,0.348c0.332,0.104,0.605,0.255,0.813,0.45
		c0.198,0.186,0.295,0.422,0.295,0.724c0,0.38-0.185,0.692-0.565,0.952c-0.389,0.266-0.905,0.4-1.537,0.4
		c-0.458,0-0.831-0.066-1.108-0.197c-0.273-0.13-0.489-0.297-0.64-0.496c-0.156-0.205-0.303-0.467-0.438-0.777
		c-0.123-0.283-0.272-0.504-0.448-0.653c-0.184-0.154-0.409-0.233-0.672-0.233c-0.32,0-0.588,0.099-0.797,0.297
		c-0.21,0.198-0.317,0.44-0.317,0.719c0,0.449,0.164,0.914,0.487,1.38c0.321,0.464,0.744,0.838,1.257,1.115
		c0.718,0.381,1.637,0.573,2.732,0.573c0.913,0,1.716-0.141,2.385-0.42c0.676-0.281,1.198-0.677,1.551-1.177
		c0.354-0.499,0.533-1.073,0.533-1.701c0-0.526-0.104-0.979-0.31-1.345C20.019,16.319,19.729,16.015,19.363,15.777z"></path>
      <path d="M16,0C7.162,0,0,7.164,0,16s7.162,16,16,16c8.837,0,16-7.164,16-16S24.837,0,16,0z M19.575,24.114
		c-0.757,0-1.469-0.19-2.093-0.526c-0.453,0.085-0.919,0.129-1.396,0.129c-4.216,0-7.632-3.416-7.632-7.633
		c0-0.523,0.053-1.037,0.154-1.533C8.223,13.894,8,13.129,8,12.312c0-2.444,1.981-4.427,4.426-4.427c0.866,0,1.673,0.25,2.354,0.681
		c0.425-0.074,0.86-0.112,1.306-0.112c4.215,0,7.631,3.417,7.631,7.63c0,0.563-0.061,1.11-0.176,1.64
		C23.835,18.315,24,18.982,24,19.688C24,22.133,22.02,24.114,19.575,24.114z"></path>
    </g>
  </g>
  <g id="facebook" data-iconmelon="Flat Social Icons:05a5948ba66490483129c2bcdaa481f1">
    <path d="M16,0C7.163,0,0,7.164,0,16c0,8.837,7.163,16,16,16s16-7.163,16-16C32,7.164,24.836,0,16,0z M19.532,13.291
	l-0.184,2.394h-2.454V24h-3.101v-8.315H12.14v-2.394h1.654v-1.608c0-0.708,0.018-1.802,0.533-2.479C14.869,8.487,15.614,8,16.895,8
	c2.087,0,2.965,0.298,2.965,0.298l-0.414,2.451c0,0-0.689-0.2-1.332-0.2c-0.644,0-1.22,0.231-1.22,0.874v1.869H19.532z"></path>
  </g>
  <g id="linkedin" data-iconmelon="Flat Social Icons:01c61d24a0a5319e0d4efae034e4824a">
    <path d="M16,0C7.163,0,0,7.164,0,16s7.163,16,16,16c8.838,0,16-7.164,16-16S24.838,0,16,0z M11.522,22.691H8.403
	v-9.98h3.119V22.691z M9.883,11.463H9.86c-1.129,0-1.86-0.764-1.86-1.73C8,8.748,8.754,8,9.905,8c1.15,0,1.857,0.746,1.88,1.73
	C11.785,10.697,11.056,11.463,9.883,11.463z M24,22.691h-3.537v-5.164c0-1.353-0.552-2.275-1.77-2.275
	c-0.93,0-1.446,0.623-1.688,1.224c-0.09,0.216-0.075,0.515-0.075,0.816v5.399h-3.504c0,0,0.046-9.148,0-9.98h3.504v1.566
	c0.207-0.685,1.326-1.662,3.112-1.662c2.216,0,3.958,1.436,3.958,4.527V22.691z"></path>
  </g>
  <g id="twitter" data-iconmelon="Flat Social Icons:26b05726b10222fa77dc99e12fd47da2">
    <path d="M16,0C7.164,0,0,7.164,0,16c0,8.837,7.164,16,16,16c8.837,0,16-7.163,16-16C32,7.164,24.837,0,16,0z
	 M22.373,13.511c0.006,0.14,0.009,0.283,0.009,0.425c0,4.346-3.306,9.355-9.355,9.355c-1.856,0-3.585-0.544-5.04-1.477
	c0.257,0.031,0.52,0.045,0.784,0.045c1.54,0,2.958-0.525,4.084-1.408c-1.439-0.025-2.653-0.977-3.071-2.282
	c0.2,0.039,0.406,0.059,0.618,0.059c0.301,0,0.591-0.039,0.866-0.116c-1.505-0.301-2.639-1.63-2.639-3.224v-0.041
	c0.445,0.245,0.952,0.394,1.49,0.411c-0.882-0.59-1.462-1.597-1.462-2.737c0-0.603,0.161-1.167,0.444-1.655
	c1.623,1.991,4.046,3.299,6.778,3.436c-0.058-0.24-0.085-0.491-0.085-0.749c0-1.815,1.472-3.288,3.287-3.288
	c0.946,0,1.802,0.399,2.399,1.038c0.751-0.147,1.454-0.42,2.09-0.797c-0.244,0.768-0.767,1.411-1.446,1.818
	c0.665-0.08,1.299-0.256,1.889-0.518C23.575,12.468,23.016,13.047,22.373,13.511z"></path>
  </g>
  <g id="wordpress" data-iconmelon="Flat Social Icons:8982a6e065298d42a98bf7a0e7a8e880">
    <path d="M16,0C7.162,0,0,7.163,0,16s7.162,16,16,16c8.837,0,16-7.164,16-16S24.837,0,16,0z M8,16
	c0-1.161,0.249-2.261,0.693-3.257l3.816,10.456C9.841,21.904,8,19.166,8,16z M16.001,24.001c-0.787,0-1.544-0.114-2.26-0.325
	l2.401-6.976l2.458,6.737c0.016,0.039,0.036,0.075,0.057,0.109C17.826,23.84,16.933,24.001,16.001,24.001z M17.104,12.249
	c0.482-0.025,0.915-0.076,0.915-0.076c0.431-0.053,0.38-0.685-0.05-0.66c0,0-1.297,0.103-2.133,0.103
	c-0.786,0-2.107-0.103-2.107-0.103c-0.431-0.024-0.482,0.634-0.051,0.66c0,0,0.408,0.05,0.839,0.076l1.247,3.415l-1.751,5.25
	l-2.914-8.665c0.482-0.025,0.915-0.076,0.915-0.076c0.432-0.053,0.38-0.685-0.05-0.66c0,0-1.295,0.103-2.132,0.103
	c-0.15,0-0.326-0.005-0.515-0.01c1.43-2.172,3.888-3.607,6.685-3.607c2.083,0,3.979,0.797,5.402,2.101
	c-0.035-0.002-0.069-0.007-0.103-0.007c-0.787,0-1.343,0.685-1.343,1.42c0,0.66,0.38,1.217,0.785,1.876
	c0.304,0.532,0.66,1.217,0.66,2.207c0,0.686-0.204,1.546-0.608,2.586l-0.798,2.666L17.104,12.249z M20.024,22.915l2.443-7.064
	c0.457-1.142,0.609-2.054,0.609-2.865c0-0.295-0.02-0.568-0.055-0.824C23.646,13.302,24,14.608,24,16
	C24,18.952,22.401,21.528,20.024,22.915z"></path>
  </g>
  <g id="google-plus" data-iconmelon="Flat Social Icons:3769f7aef24d6a2de99b5c893b5d0bdb">
    <g>
      <path d="M15.765,11.719c-0.22-1.677-1.434-3.021-2.71-3.06s-2.133,1.244-1.912,2.922
		c0.22,1.676,1.434,3.065,2.71,3.104C15.129,14.723,15.985,13.395,15.765,11.719z"></path>
      <path d="M16,0C7.164,0,0,7.164,0,16s7.164,16,16,16s16-7.164,16-16S24.837,0,16,0z M13.363,23.958
		c-2.751,0-5.073-1.119-5.073-2.909c0-1.817,2.118-3.57,4.87-3.57c0.299,0,0.574-0.008,0.859-0.008
		c-0.376-0.366-0.675-0.815-0.675-1.369c0-0.327,0.105-0.646,0.252-0.925c-0.149,0.01-0.302,0.013-0.459,0.013
		c-2.26,0-3.774-1.607-3.774-3.6c0-1.949,2.091-3.632,4.312-3.632h4.956l-1.109,0.801h-1.571c1.042,0.401,1.598,1.616,1.598,2.862
		c0,1.047-0.581,1.947-1.4,2.588c-0.799,0.624-0.951,0.885-0.951,1.418c0,0.453,0.855,1.224,1.304,1.541
		c1.31,0.925,1.733,1.785,1.733,3.22C18.233,22.178,16.5,23.958,13.363,23.958z M23.709,16.384H21.78v1.93h-1.552v-1.93h-1.929
		v-1.553h1.929v-1.929h1.552v1.929h1.929V16.384z"></path>
      <path d="M14.917,18.137c-0.375-0.121-0.79-0.193-1.233-0.197c-1.902-0.021-3.606,1.159-3.606,2.577
		c0,1.445,1.374,2.648,3.276,2.648c2.674,0,3.605-1.129,3.605-2.575c0-0.175-0.021-0.345-0.061-0.511
		C16.689,19.261,15.948,18.855,14.917,18.137z"></path>
    </g>
  </g>
  <g id="google-drive" data-iconmelon="Flat Social Icons:9b4967612fb8f447ddfb18c76b84ad3f">
    <path d="M16,0C7.162,0,0,7.164,0,16s7.162,16,16,16c8.837,0,16-7.164,16-16S24.837,0,16,0z M10.376,22.584l-0.133-0.229
	l-2.198-3.771L8,18.508l0.045-0.076L13.1,9.677l0.131-0.228l0.132,0.227l2.199,3.771l0.045,0.077l-0.045,0.077l-5.054,8.754
	L10.376,22.584z M23.869,19.162l-2.168,3.789l-0.044,0.076h-0.089H11.46h-0.264l0.131-0.229l2.167-3.789l0.044-0.076h0.089h10.109
	H24L23.869,19.162z M23.736,18.033l-4.365,0.019h-0.088l-0.045-0.077L14.184,9.22l-0.131-0.228l0.263-0.001l4.366-0.018h0.088
	l0.045,0.077l5.055,8.755L24,18.032L23.736,18.033z"></path>
  </g>
  <g id="document-csv" data-iconmelon="Icon Set:b0f1adef74f0e7b658c11b263d03d816">
    <path d="M18,8.414l1.5,4.336L21,8.414C21.213,7.862,22.025,8,22.482,8s0.655,0.447,0.442,1
        l-1.927,5c-0.213,0.553-0.756,1-1.213,1c-0.114,0-0.456,0-0.57,0c-0.457,0-1-0.447-1.213-1l-1.927-5c-0.213-0.553-0.015-1,0.442-1
        S17.787,7.862,18,8.414z M12.5,12.375H12v-0.044c-1.141-0.203-2-1.085-2-2.144C10,8.979,11.119,8,12.5,8H14c0.553,0,1,0.447,1,1
        s-0.447,1-1,1h-2v0.625h0.5c1.381,0,2.5,0.979,2.5,2.188S13.881,15,12.5,15H11c-0.553,0-1-0.447-1-1c0-0.552,0.447-1,1-1h2v-0.625
        H12.5z M27.991,17.777c0,2.144-0.271,2.802-1.967,4.419c-0.064,0.062-0.104,0.123-0.152,0.184l-5.927,5.927
        C18.496,29.631,17.902,30,16.031,30H8c-1.104,0-2-0.896-2-2V17h3v10h7c1.104,0,2-0.896,2-2v-3c0-1.104,0.896-2,2-2h3
        c1.104,0,2-0.896,2-2V5H9v1H6V4c0-1.104,0.896-2,2-2h18c1.104,0,2,0.896,2,2v13.69C27.999,17.721,27.991,17.745,27.991,17.777z M8,8
        c0.553,0,1,0.447,1,1s-0.447,1-1,1H7c-0.553,0-1,0.447-1,1v1c0,0.553,0.447,1,1,1h1c0.553,0,1,0.448,1,1c0,0.553-0.447,1-1,1H7
        c-1.657,0-3-1.343-3-3v-1c0-1.657,1.343-3,3-3H8z"></path>
  </g>
  <g id="document-pdf" data-iconmelon="Icon Set:a572edd4e7db97b113b810328bc76cd2">
    <path d="M19,15c-0.553,0-1-0.447-1-1V9c0-0.553,0.447-1,1-1h3c0.553,0,1,0.447,1,1
        s-0.447,1-1,1h-2v1h1c0.553,0,1,0.448,1,1c0,0.553-0.447,1-1,1h-1v1C20,14.553,19.553,15,19,15z M14,8c1.657,0,3,1.343,3,3v1
        c0,1.657-1.343,3-3,3h-2c-0.553,0-1-0.447-1-1V9c0-0.553,0.447-1,1-1H14z M13,13h1c0.553,0,1-0.447,1-1v-1c0-0.553-0.447-1-1-1h-1
        V13z M27.991,17.777c0,2.144-0.271,2.802-1.967,4.419c-0.064,0.062-0.104,0.123-0.152,0.184l-5.927,5.927
        C18.496,29.631,17.902,30,16.031,30H8c-1.104,0-2-0.896-2-2V17h3v10h7c1.104,0,2-0.896,2-2v-3c0-1.104,0.896-2,2-2h3
        c1.104,0,2-0.896,2-2V5H9v1H6V4c0-1.104,0.896-2,2-2h18c1.104,0,2,0.896,2,2v13.69C27.998,17.721,27.991,17.745,27.991,17.777z
         M10,10.5c0,1.381-1.119,2.5-2.5,2.5H6v1c0,0.553-0.447,1-1,1s-1-0.447-1-1V9c0-0.553,0.447-1,1-1h2.5C8.881,8,10,9.119,10,10.5z
         M6,11h2v-1H6V11z"></path>
  </g>
  <g id="document-html" data-iconmelon="Icon Set:a18cdbf65bdfb534087a33c5258bf335">
    <path d="M24,9v4h1c0.553,0,1,0.448,1,1c0,0.553-0.447,1-1,1h-2c-0.553,0-1-0.447-1-1V9
        c0-0.553,0.447-1,1-1S24,8.447,24,9z M14,15c-0.553,0-1-0.447-1-1V9c0-0.553,0.447-1,1-1s1.208,0.447,1.466,1L17,12.296L18.534,9
        C18.792,8.447,19.447,8,20,8s1,0.447,1,1v5c0,0.553-0.447,1-1,1s-1-0.447-1-1v-1.704c0,0-0.947,2.671-2,2.671s-2-2.671-2-2.671V14
        C15,14.553,14.553,15,14,15z M30.991,17.777c0,2.144-0.271,2.802-1.967,4.419c-0.064,0.062-0.104,0.123-0.152,0.185l-5.926,5.925
        C21.496,29.631,20.902,30,19.031,30H11c-1.104,0-2-0.896-2-2V17h3v10h7c1.104,0,2-0.896,2-2v-3c0-1.104,0.896-2,2-2h3
        c1.104,0,2-0.896,2-2V5H12v1H9V4c0-1.104,0.896-2,2-2h18c1.104,0,2,0.896,2,2v13.69C30.998,17.721,30.991,17.745,30.991,17.777z
         M11,8c0.553,0,1,0.447,1,1s-0.447,1-1,1v4c0,0.553-0.447,1-1,1s-1-0.447-1-1v-4c-0.553,0-1-0.447-1-1s0.447-1,1-1H11z M6,15
        c-0.553,0-1-0.447-1-1v-1H3v1c0,0.553-0.447,1-1,1s-1-0.447-1-1V9c0-0.553,0.447-1,1-1s1,0.447,1,1v2h2V9c0-0.553,0.447-1,1-1
        s1,0.447,1,1v5C7,14.553,6.553,15,6,15z"></path>
  </g>
  <g id="document-txt" data-iconmelon="Icon Set:0e3a6f373a9ae35501416154781f612d">
    <path d="M17,15c-0.553,0-1-0.447-1-1v-4c-0.553,0-1-0.447-1-1s0.447-1,1-1h2
        c0.553,0,1,0.447,1,1s-0.447,1-1,1v4C18,14.553,17.553,15,17,15z M13.515,14.919c-0.55,0.253-1.062,0.022-1.383-0.515l-0.646-1.084
        l-0.637,1.056c-0.323,0.535-0.839,0.764-1.392,0.513c-0.553-0.253-0.609-0.891-0.287-1.426l1.207-1.999L9.229,9.54
        c-0.32-0.538-0.329-1.179,0.221-1.432s1.126-0.022,1.447,0.515l0.594,0.995l0.602-0.998c0.323-0.535,0.903-0.764,1.456-0.512
        s0.545,0.89,0.223,1.425l-1.172,1.941l1.201,2.014C14.12,14.025,14.064,14.666,13.515,14.919z M27.991,17.777
        c0,2.144-0.271,2.802-1.967,4.419c-0.064,0.062-0.104,0.123-0.152,0.185l-5.926,5.925C18.496,29.631,17.902,30,16.031,30H8
        c-1.104,0-2-0.896-2-2V17h3v10h7c1.104,0,2-0.896,2-2v-3c0-1.104,0.896-2,2-2h3c1.104,0,2-0.896,2-2V5H9v1H6V4c0-1.104,0.896-2,2-2
        h18c1.104,0,2,0.896,2,2v13.69C27.998,17.721,27.991,17.745,27.991,17.777z M8,9c0,0.553-0.447,1-1,1v4c0,0.553-0.447,1-1,1
        s-1-0.447-1-1v-4c-0.553,0-1-0.447-1-1s0.447-1,1-1h2C7.553,8,8,8.447,8,9z"></path>
  </g>
</svg>